-
http:// www . torrentkit. com        
http:// www .torrentkit. com       the fast  and The Hottest Private Tracker on the net

Please Seed back to make the speed Faster!!!

and don't forget to visit      ...... www .torrentkit .com..........
-[img]http://img121.imageshack.us/img121/3571/kaboomj.jpg[/img]

[color=blue][size=5][b]Kaboom 2010 BDRip XVID AC3 HQ Hive-CM8[/b][/size][/color]


[b]Thx Hive

CM8 Doing It Right The First Time :D

Why download a touched up rip of a rip BRrip
Get the real deal BDRip
Enjoy

Source Bluray

Video: 720x304 @bitrate 1800 2pass
Audio: DTS to AC3 5.1 @448
Sample: yes included[/b]
 
http://www.imdb.com/title/tt1523483/


General
Complete name                    : Kaboom.2010.BDRip.XVID.AC3.HQ.Hive-CM8.avi
Format                           : AVI
Format/Info                      : Audio Video Interleave
File size                        : 1.38 GiB
Duration                         : 1h 26mn
Overall bit rate                 : 2 285 Kbps
Writing application              : Nandub v1.0rc2
Writing library                  : Nandub build 1853/release

Video
ID                               : 0
Format                           : MPEG-4 Visual
Format profile                   : Advanced Simple@L5
Format settings, BVOP            : Yes
Format settings, QPel            : Yes
Format settings, GMC             : No warppoints
Format settings, Matrix          : Default (H.263)
Muxing mode                      : Packed bitstream
Codec ID                         : XVID
Codec ID/Hint                    : XviD
Duration                         : 1h 26mn
Bit rate                         : 1 828 Kbps
Width                            : 720 pixels
Height                           : 304 pixels
Display aspect ratio             : 2.40:1
Frame rate                       : 23.976 fps
Color space                      : YUV
Chroma subsampling               : 4:2:0
Bit depth                        : 8 bits
Scan type                        : Progressive
Bits/(Pixel*Frame)               : 0.348
Stream size                      : 1.10 GiB (80%)
Writing library                  : XviD 1.2.1 (UTC 2008-12-04)

Audio
ID                               : 1
Format                           : AC-3
Format/Info                      : Audio Coding 3
Mode extension                   : CM (complete main)
Codec ID                         : 2000
Duration                         : 1h 26mn
Bit rate mode                    : Constant
Bit rate                         : 448 Kbps
Channel(s)                       : 6 channels
Channel positions                : Front: L C R, Side: L R, LFE
Sampling rate                    : 48.0 KHz
Bit depth                        : 16 bits
Stream size                      : 277 MiB (20%)
Alignment                        : Split accross interleaves
Interleave, duration             : 42 ms (1.00 video frame)
Interleave, preload duration     : 500 ms






Haley Bennett   ...  Stella
Thomas Dekker 	 ... 	Smith
James Duval 	... The Messiah
Andy Fischer-Price ... 	Rex
Brandy Futch 	... Drug Fairy Nymph
Nicole LaLiberte ... Red-Haired Girl
Natalie Alyn Lind ... Cult Victim 



A sci-fi story centered on the sexual awakening of a group of college students. 



[img]http://img96.imageshack.us/img96/4817/kkkaakakaaka.png[/img]
[img]http://img26.imageshack.us/img26/9561/65611628.png[/img]
[img]http://img641.imageshack.us/img641/5327/kakaug.png[/img]
[img]http://img215.imageshack.us/img215/3481/kkaaka.png[/img]
[img]http://img171.imageshack.us/img171/6189/kkakaaka.png[/img]
[img]http://img812.imageshack.us/img812/793/kkakakaaka.png[/img]
[img]http://img135.imageshack.us/img135/6330/kkakkaakakaaka.png[/img]
[img]http://img189.imageshack.us/img189/8587/kkakkakaakakaaka.png[/img]
[img]http://img4.imageshack.us/img4/4272/kkakkakakaakakaaka.png[/img]





Greetz

iNK,LUSi,,MAGNET,CLASSiFiED,THC,LEGi0N,T0XiC,IMAGiNE,ViSiON,WBZ,FLAWL3SS,NOVA
Vik,Rapeseed,D2U,SAFC,goldadvance,MEMORY100,KaN1vE,Unevano,Pinnz,Wayne,Mr Hive
and all P2P groups 
Great Work Guys :D